<svg xmlns="http://www.w3.org/2000/svg" width="32.729" height="32.729" viewBox="0 0 32.729 32.729"><g transform="translate(2.877)"><path d="M49.794,0a4.794,4.794,0,1,0,4.794,4.794A4.8,4.8,0,0,0,49.794,0Z" transform="translate(-45)" fill="#565656"/></g><g transform="translate(15.342 3.835)"><path d="M251.289,64.116a.959.959,0,0,0-1.356,0l-.281.281V62.877A2.88,2.88,0,0,0,246.776,60h-5.817a.959.959,0,1,0,0,1.918h5.817a.96.96,0,0,1,.959.959V64.4l-.281-.281a.959.959,0,0,0-1.356,1.356l1.917,1.917a.959.959,0,0,0,1.358,0l1.917-1.917A.959.959,0,0,0,251.289,64.116Z" transform="translate(-240 -60)" fill="#565656"/></g><g transform="translate(3.836 21.096)"><path d="M70.548,335.769H64.8a.96.96,0,0,1-.959-.959v-1.521l.281.281a.959.959,0,0,0,1.356-1.356L63.556,330.3a.962.962,0,0,0-1.358,0l-1.917,1.917a.959.959,0,0,0,1.356,1.356l.281-.281v1.521a2.88,2.88,0,0,0,2.877,2.877h5.753a.959.959,0,0,0,0-1.918Z" transform="translate(-60.001 -330.016)" fill="#565656"/></g><g transform="translate(20.136 13.424)"><path d="M319.858,210a4.795,4.795,0,1,0,4.858,4.794A4.855,4.855,0,0,0,319.858,210Z" transform="translate(-315 -210)" fill="#565656"/></g><g transform="translate(0 9.433)"><path d="M12.5,147.559a6.664,6.664,0,0,1-9.662,0A7.625,7.625,0,0,0,0,153.468v2.877a.958.958,0,0,0,.959.959H14.383a.958.958,0,0,0,.959-.959v-2.877A7.625,7.625,0,0,0,12.5,147.559Z" transform="translate(0 -147.559)" fill="#565656"/></g><g transform="translate(17.26 22.857)"><path d="M282.63,357.559a6.814,6.814,0,0,1-9.79,0,7.625,7.625,0,0,0-2.84,5.909v3a.958.958,0,0,0,.959.959h13.552a.958.958,0,0,0,.959-.959v-3A7.625,7.625,0,0,0,282.63,357.559Z" transform="translate(-270 -357.559)" fill="#565656"/></g></svg>