<svg xmlns="http://www.w3.org/2000/svg" width="39.212" height="35.114" viewBox="0 0 39.212 35.114"><g transform="translate(0 -23.098)"><path d="M29.978,37.858c0-.007,0-.015,0-.022a.875.875,0,0,0-.022-.107h0a.884.884,0,0,0-.034-.1l-.012-.027c-.01-.023-.022-.046-.034-.069l-.016-.029-.009-.016c-.013-.021-.027-.04-.042-.06l-.008-.011a.862.862,0,0,0-.071-.081l-.015-.014a.893.893,0,0,0-.068-.059l-.018-.014a.9.9,0,0,0-.1-.064l-13.07-7.429,7.525-4.739L36.6,32.189l-5.313,3.346a.887.887,0,1,0,.945,1.5L38.8,32.9a.887.887,0,0,0-.034-1.522L24.4,23.213a.887.887,0,0,0-.911.02l-9.222,5.807-.006,0-4.608,2.9-.006,0L.417,37.762a.887.887,0,0,0,.034,1.522L14.817,47.45a.887.887,0,0,0,.911-.02L22.3,43.294a.887.887,0,1,0-.945-1.5l-6.118,3.852L2.616,38.474l7.525-4.739L23.6,41.383v10.13a.887.887,0,0,0,1.36.751l4.614-2.906a.887.887,0,0,0,.414-.751V37.962c0-.005,0-.01,0-.015Q29.984,37.9,29.978,37.858ZM25.371,49.906V40.867a.887.887,0,0,0-.449-.771L11.845,32.663l2.911-1.833L27.372,38l-1.1.7a.887.887,0,1,0,.945,1.5l1-.629v8.549Z" transform="translate(-0.002 0)" fill="#565656"/><path d="M354.956,155.278l-6.567,4.135a.887.887,0,1,0,.945,1.5l6.567-4.135a.887.887,0,0,0-.945-1.5Z" transform="translate(-317.104 -120.33)" fill="#565656"/><path d="M21.347,231.026l-6.118,3.852-13.9-7.9a.887.887,0,1,0-.877,1.542l14.366,8.166a.887.887,0,0,0,.911-.021l6.567-4.135a.887.887,0,0,0-.945-1.5Z" transform="translate(0 -185.685)" fill="#565656"/><path d="M354.956,195.278l-6.567,4.135a.887.887,0,1,0,.945,1.5l6.567-4.135a.887.887,0,0,0-.945-1.5Z" transform="translate(-317.104 -156.781)" fill="#565656"/><path d="M21.347,271.026l-6.118,3.852-13.9-7.9a.887.887,0,1,0-.877,1.542l14.366,8.166a.887.887,0,0,0,.911-.021l6.567-4.135a.887.887,0,0,0-.945-1.5Z" transform="translate(0 -222.136)" fill="#565656"/><path d="M354.956,235.278l-6.567,4.135a.887.887,0,1,0,.945,1.5l6.567-4.135a.887.887,0,0,0-.945-1.5Z" transform="translate(-317.104 -193.233)" fill="#565656"/><path d="M21.347,311.026l-6.118,3.852-13.9-7.9a.887.887,0,0,0-.877,1.542l14.366,8.166a.887.887,0,0,0,.911-.02l6.567-4.135a.887.887,0,0,0-.945-1.5Z" transform="translate(0 -258.588)" fill="#565656"/></g></svg>