<svg xmlns="http://www.w3.org/2000/svg" width="37.828" height="35.955" viewBox="0 0 37.828 35.955"><g transform="translate(0 -12.676)"><g transform="translate(0 12.675)"><g transform="translate(0 0)"><path d="M37.193,28.65,20.221,13.185a1.931,1.931,0,0,0-2.613,0L.635,28.65a1.94,1.94,0,0,0,1.307,3.374H4.653V47.518a1.113,1.113,0,0,0,1.112,1.112h9.3a1.112,1.112,0,0,0,1.112-1.112V38.11h5.468v9.408a1.113,1.113,0,0,0,1.112,1.112h9.3a1.112,1.112,0,0,0,1.112-1.112V32.023h2.711a1.94,1.94,0,0,0,1.306-3.374Z" transform="translate(0 -12.675)" fill="#565656"/></g></g><g transform="translate(25.414 14.896)"><g transform="translate(0 0)"><path d="M351.444,42.73h-7.471l8.583,7.8V43.842A1.112,1.112,0,0,0,351.444,42.73Z" transform="translate(-343.973 -42.73)" fill="#565656"/></g></g></g></svg>