<?xml version="1.0" encoding="utf-8"?>
<!-- Generator: Adobe Illustrator 21.0.2, SVG Export Plug-In . SVG Version: 6.00 Build 0)  -->
<svg version="1.1" id="Layer_1" xmlns="http://www.w3.org/2000/svg" xmlns:xlink="http://www.w3.org/1999/xlink" x="0px" y="0px"
	 viewBox="0 0 814.6 139.8" style="enable-background:new 0 0 814.6 139.8;" xml:space="preserve">
<style type="text/css">
	.st0{opacity:8.000000e-02;enable-background:new    ;}
</style>
<path id="Path_93" class="st0" d="M798.5,92.3l-34.1,23.9h-5.5l-35.4-29.5h-88.7v-65l-5.7-0.6l-0.6-12.8h-8l0.6-8.3l-7.4,0.6v7.8
	h-6.8v4.4h-11.4V8.3h-9.1V1.1h-10.8V10l-6.8-0.5v12.2l-5.1-0.6v69.8l-0.6-0.3l-4.6-2.7l-0.2,0.2l0.3,0.3v0.5h-1.1l0.9-0.8l-0.9-0.8
	l1.1,0.6l1.8-1.7l0.6-1.7v-1.1l-0.6-0.6l-1.7-0.6l-1.1-0.6h-1.1l-0.6-1.1l-3.4,1.1h-6.8l-2.3-1.1l-1.1-1.1l-1.7-1.1l-1.7-0.6
	l-2.8,0.6l-2.3,0.6l-2.8,1.1l-0.6,1.7l-1.1,1.1l-0.6,1.7l1.1,1.1l1.1,1.1l-2.3,2.2l-2.3,0.6h-2.8l-2.8-0.6l-4-0.5l-5.1-0.6l-4.5,0.6
	l-5.7,2.2l0.6,2.8l-0.6,2.8l1.7,0.6l1.1,1.1l1.1,1.7l1.1,0.6H500l-0.6,2.8l-1.7,2.8l-2.3,2.2l-0.1,0.4l-14.7-1.5l-15.9-1.1
	l-14.8-1.1l-6.8-0.6h-16.5l-10.8,1.1l-12.5,2.2l-11.9,3.3l-11.9,2.8l-10.2,3.3l-4.5,1.7l-4,1.1l-2.8,1.1l-2.8,0.6l-1.1,0.6h-17.1
	v-8.9l5.7-0.6l-42.1-41.1l-16.5,16.1v-8.3h-6.3v12.8l-21.6,20.6h4v9.4h-9.1v-13.3h5.7l-41.5-41.1l-17.1,16.1v-8.9h-6.3v12.8
	l-21,21.1h3.4v3.9h-4.5l-41.5-41.1l-17.1,16.1v-8.3h-6.3v12.8l-21,20.6h3.4v2.8l-22.8,2.2l-6.7-1.2l-0.1-0.4l-1.7-3.9h2.8v-5
	l-2.3-0.6l-1.1-0.6l-2.8-1.1l2.8-4.4h-9.1l0.6-3.3l0.6-3.3l-2.8-0.6l-2.3-1.1h-1.7l-1.7,1.7l-0.6,1.1l-1.7,2.8v-2.8l-4.5-1.1
	l-1.1,3.3l-0.6,3.3h-5.7v9.9l-2.3-0.4l-8.5-22.8L0,73.8v66h814.6v-33.6L798.5,92.3z M516.5,101.2l-1.1-0.6v-0.6h-6.8l2.8-0.6l4-1.7
	l1.1,2.2l1.7,1.7l1.1,1.7L516.5,101.2z"/>
</svg>
