<svg id="Layer_1"  fill="#565656" height="512" viewBox="0 0 496 496" width="512" xmlns="http://www.w3.org/2000/svg"><path d="m481.737 191.559-33.737-28.357v-131.202c8.836 0 16-7.163 16-16s-7.164-16-16-16c-12.991 0-99.024 0-112 0-8.836 0-16 7.163-16 16s7.164 16 16 16v37.064l-77.705-65.312c-5.952-5.002-14.638-5.002-20.59 0l-223.443 187.807c-9.064 7.619-14.262 18.78-14.262 30.621v17.296c0 32.636 38.134 53.826 67 29.56v210.964c0 8.837 7.164 16 16 16h330c8.836 0 16-7.163 16-16 0-234.791-.565-211.44 1.263-209.903v.001c26.02 21.867 65.737 3.352 65.737-30.622v-17.296c0-11.841-5.198-23.002-14.263-30.621zm-113.737-159.559h48v104.306l-48-40.345zm29 432h-298v-221.861l149-125.237 149 125.237zm67-224.524c0 6.804-7.923 10.514-13.147 6.125l-192.558-161.849c-5.952-5.002-14.638-5.002-20.59 0l-192.557 161.848c-5.218 4.385-13.148.688-13.148-6.124 0-18.246-.8-20.35 2.853-23.421l213.147-179.154 213.147 179.153c3.667 3.082 2.853 5.379 2.853 23.422zm-287.314 132.211 120-120c6.249-6.248 16.379-6.248 22.628 0 6.248 6.248 6.248 16.379 0 22.627l-120 120c-6.25 6.249-16.379 6.248-22.628 0-6.248-6.249-6.248-16.379 0-22.627zm121.314-12.687c-13.233 0-24 10.767-24 24s10.767 24 24 24 24-10.767 24-24-10.767-24-24-24zm-100-72c13.233 0 24-10.767 24-24s-10.767-24-24-24-24 10.767-24 24 10.767 24 24 24z"/></svg>