<svg xmlns="http://www.w3.org/2000/svg" viewBox="0 0 209.05 100.83"><defs><style>.cls-1{fill:#00a1fc;}</style></defs><title>Asset 17</title><g id="Layer_2" data-name="Layer 2"><g id="Layer_1-2" data-name="Layer 1"><path class="cls-1" d="M15.38,74.11H36.1a5.2,5.2,0,1,1,.07,10.4H6.64C2.89,84.51,0,82,0,78.74a8.12,8.12,0,0,1,1.66-4.19L24.84,42.71H6.28a5.13,5.13,0,1,1-.07-10.25H33.58c3.61,0,6.57,2.6,6.57,5.63a8.7,8.7,0,0,1-1.8,4.62Z"/><path class="cls-1" d="M77,45c3,0,5.49,2.17,5.49,4.77V80.11a5.34,5.34,0,0,1-5.56,5.13c-1.37,0-3.32-1.73-5.27-4.55-3.54,3.68-5.49,4.62-9.75,4.62-9.89,0-17.62-8.81-17.62-20.07S52.06,44.94,62,44.94c4,0,6.06.87,9.75,4.19C73.65,46.6,75.6,45,77,45ZM55.38,65.23c0,5.78,3.39,10,7.94,10s8-4.12,8-10-3.25-10-8-10S55.38,59.31,55.38,65.23Z"/><path class="cls-1" d="M100.66,47.54a14.94,14.94,0,0,1,8.74-2.67,15.42,15.42,0,0,1,10.54,4c2.67,2.53,3.83,5.49,3.83,10V79.67a5.62,5.62,0,0,1-5.56,5.63,5.69,5.69,0,0,1-5.7-5.56v-19a6.46,6.46,0,1,0-12.92,0V79.67a5.6,5.6,0,1,1-11.19-.07V50.79A5.7,5.7,0,0,1,94,45.09c1.16,0,3,1.59,4.91,4A13.82,13.82,0,0,1,100.66,47.54Z"/><path class="cls-1" d="M160.74,45.16a5.64,5.64,0,0,1,5.56,5.7v29c0,13.5-7.15,20.94-20.22,20.94-9,0-16.75-3.83-16.75-8.23a5.09,5.09,0,0,1,4.84-4.84,6.27,6.27,0,0,1,2.24.51c.22.14,1,.51,2.31,1.08a18.8,18.8,0,0,0,7.8,1.81A9.08,9.08,0,0,0,153.73,88c1.16-1.66,1.59-3.18,1.59-6.64v-.65c-3.47,3.83-5.34,4.69-9.6,4.69-10.11,0-17.4-8.45-17.4-20s7.51-20.51,17.62-20.51c4,0,6.06.94,9.75,4.55C157.63,46.75,159.51,45.16,160.74,45.16Zm-21.3,20.15c0,5.85,3.32,10,8.09,10s7.87-4,7.87-10-3.1-10-8-10C142.76,55.27,139.44,59.31,139.44,65.31Z"/><path class="cls-1" d="M203.56,45c3,0,5.49,2.17,5.49,4.77V80.11a5.34,5.34,0,0,1-5.56,5.13c-1.37,0-3.32-1.73-5.27-4.55-3.54,3.68-5.49,4.62-9.75,4.62-9.89,0-17.62-8.81-17.62-20.07s7.8-20.29,17.76-20.29c4,0,6.07.87,9.75,4.19C200.24,46.6,202.19,45,203.56,45ZM182,65.23c0,5.78,3.39,10,7.94,10s8-4.12,8-10-3.25-10-8-10S182,59.31,182,65.23Z"/><path class="cls-1" d="M8.58,24.23A5,5,0,0,1,5,15.7L20.61,0,36,14.68a5,5,0,1,1-6.89,7.25L20.81,14l-8.69,8.76A5,5,0,0,1,8.58,24.23Z"/></g></g></svg>