<?xml version="1.0" encoding="utf-8"?>
<!-- Generator: Adobe Illustrator 21.0.2, SVG Export Plug-In . SVG Version: 6.00 Build 0)  -->
<svg version="1.1" baseProfile="tiny" id="Layer_1" xmlns="http://www.w3.org/2000/svg" xmlns:xlink="http://www.w3.org/1999/xlink"
	 x="0px" y="0px" viewBox="0 0 209.1 100.8" xml:space="preserve">
<title>Asset 17</title>
<g id="Layer_2">
	<g id="Layer_1-2">
		<path fill="#FFFFFF" d="M15.4,74.1h20.7c2.9,0,5.2,2.3,5.2,5.2s-2.3,5.2-5.2,5.2H6.6C2.9,84.5,0,82,0,78.7c0.1-1.5,0.7-3,1.7-4.2
			l23.2-31.8H6.3c-2.8,0.1-5.2-2-5.4-4.9s2-5.2,4.9-5.4c0.1,0,0.3,0,0.4,0h27.4c3.6,0,6.6,2.6,6.6,5.6c-0.1,1.7-0.8,3.3-1.8,4.6
			L15.4,74.1z"/>
		<path fill="#FFFFFF" d="M77,45c3,0,5.5,2.2,5.5,4.8v30.3c-0.1,2.9-2.6,5.2-5.5,5.1c0,0,0,0,0,0c-1.4,0-3.3-1.7-5.3-4.6
			c-3.5,3.7-5.5,4.6-9.8,4.6c-9.9,0-17.6-8.8-17.6-20.1S52.1,44.9,62,44.9c4,0,6.1,0.9,9.8,4.2C73.7,46.6,75.6,45,77,45z M55.4,65.2
			c0,5.8,3.4,10,7.9,10s8-4.1,8-10s-3.3-10-8-10S55.4,59.3,55.4,65.2z"/>
		<path fill="#FFFFFF" d="M100.7,47.5c2.6-1.8,5.6-2.7,8.7-2.7c3.9,0,7.7,1.4,10.5,4c2.7,2.5,3.8,5.5,3.8,10v20.8
			c0,3.1-2.5,5.6-5.6,5.6c-3.1,0-5.6-2.5-5.7-5.6v-19c0-3.6-2.9-6.5-6.5-6.5c-3.6,0-6.5,2.9-6.5,6.5c0,0,0,0,0,0v18.9
			c0.1,3.1-2.3,5.7-5.4,5.8s-5.7-2.3-5.8-5.4c0-0.2,0-0.3,0-0.5V50.8c0-3.1,2.5-5.6,5.6-5.7c1.2,0,3,1.6,4.9,4
			C99.4,48.5,100,48,100.7,47.5z"/>
		<path fill="#FFFFFF" d="M160.7,45.2c3.1,0,5.6,2.6,5.6,5.7v29c0,13.5-7.1,20.9-20.2,20.9c-9,0-16.8-3.8-16.8-8.2
			c0.1-2.6,2.2-4.7,4.8-4.8c0.8,0,1.5,0.2,2.2,0.5c0.2,0.1,1,0.5,2.3,1.1c2.4,1.2,5.1,1.8,7.8,1.8c2.8,0.1,5.4-1,7.2-3.1
			c1.2-1.7,1.6-3.2,1.6-6.6v-0.7c-3.5,3.8-5.3,4.7-9.6,4.7c-10.1,0-17.4-8.4-17.4-20s7.5-20.5,17.6-20.5c4,0,6.1,0.9,9.8,4.5
			C157.6,46.7,159.5,45.2,160.7,45.2z M139.4,65.3c0,5.8,3.3,10,8.1,10s7.9-4,7.9-10s-3.1-10-8-10C142.8,55.3,139.4,59.3,139.4,65.3
			z"/>
		<path fill="#FFFFFF" d="M203.6,45c3,0,5.5,2.2,5.5,4.8v30.3c-0.1,2.9-2.6,5.2-5.5,5.1c0,0,0,0,0,0c-1.4,0-3.3-1.7-5.3-4.6
			c-3.5,3.7-5.5,4.6-9.8,4.6c-9.9,0-17.6-8.8-17.6-20.1s7.8-20.3,17.8-20.3c4,0,6.1,0.9,9.8,4.2C200.2,46.6,202.2,45,203.6,45z
			 M182,65.2c0,5.8,3.4,10,7.9,10s8-4.1,8-10s-3.3-10-8-10S182,59.3,182,65.2z"/>
		<path fill="#FFFFFF" d="M8.6,24.2c-2.8,0-5-2.2-5-5c0-1.3,0.5-2.6,1.5-3.6L20.6,0L36,14.7c2,1.9,2.1,5.1,0.2,7.1s-5.1,2.1-7.1,0.2
			L20.8,14l-8.7,8.8C11.2,23.7,9.9,24.2,8.6,24.2z"/>
	</g>
</g>
</svg>
